<mxfile host="65bd71144e">
    <diagram id="mgy2D4znApquXr-eNJQm" name="Página-1">
        <mxGraphModel dx="1128" dy="740" grid="1" gridSize="10" guides="1" tooltips="1" connect="1" arrows="1" fold="1" page="1" pageScale="1" pageWidth="827" pageHeight="1169" math="0" shadow="0">
            <root>
                <mxCell id="0"/>
                <mxCell id="1" parent="0"/>
                <mxCell id="2" value="Inicio Ejercicio" style="ellipse;whiteSpace=wrap;html=1;fillColor=#ffe6cc;strokeColor=#d79b00;" vertex="1" parent="1">
                    <mxGeometry x="240" y="50" width="280" height="80" as="geometry"/>
                </mxCell>
                <mxCell id="4" value="Solicitar primer número" style="shape=parallelogram;perimeter=parallelogramPerimeter;whiteSpace=wrap;html=1;fixedSize=1;fillColor=#dae8fc;strokeColor=#6c8ebf;" vertex="1" parent="1">
                    <mxGeometry x="220" y="200" width="300" height="80" as="geometry"/>
                </mxCell>
                <mxCell id="5" value="Transformar String a Número" style="rounded=0;whiteSpace=wrap;html=1;fillColor=#d5e8d4;strokeColor=#82b366;" vertex="1" parent="1">
                    <mxGeometry x="225" y="360" width="290" height="120" as="geometry"/>
                </mxCell>
                <mxCell id="7" value="Solicitar&amp;nbsp; Segundo número" style="shape=parallelogram;perimeter=parallelogramPerimeter;whiteSpace=wrap;html=1;fixedSize=1;fillColor=#dae8fc;strokeColor=#6c8ebf;" vertex="1" parent="1">
                    <mxGeometry x="219" y="560" width="300" height="80" as="geometry"/>
                </mxCell>
                <mxCell id="8" value="Transformar String a Número" style="rounded=0;whiteSpace=wrap;html=1;fillColor=#d5e8d4;strokeColor=#82b366;" vertex="1" parent="1">
                    <mxGeometry x="225" y="720" width="290" height="120" as="geometry"/>
                </mxCell>
                <mxCell id="9" value="Num1 + Num2&lt;br&gt;Num1 - Num2&lt;br&gt;Num1 * Num2&lt;br&gt;Num1 / Num2&lt;br&gt;Num1 % Num2" style="rounded=0;whiteSpace=wrap;html=1;fillColor=#d5e8d4;strokeColor=#82b366;" vertex="1" parent="1">
                    <mxGeometry x="224" y="920" width="290" height="120" as="geometry"/>
                </mxCell>
                <mxCell id="10" value="Solicitar&amp;nbsp; Segundo número" style="shape=parallelogram;perimeter=parallelogramPerimeter;whiteSpace=wrap;html=1;fixedSize=1;fillColor=#dae8fc;strokeColor=#6c8ebf;" vertex="1" parent="1">
                    <mxGeometry x="219" y="1120" width="300" height="80" as="geometry"/>
                </mxCell>
                <mxCell id="11" value="Fin Ejercicio 1" style="ellipse;whiteSpace=wrap;html=1;fillColor=#ffe6cc;strokeColor=#d79b00;" vertex="1" parent="1">
                    <mxGeometry x="219" y="1280" width="300" height="80" as="geometry"/>
                </mxCell>
                <mxCell id="14" value="" style="endArrow=classicThin;html=1;endFill=1;" edge="1" parent="1">
                    <mxGeometry width="50" height="50" relative="1" as="geometry">
                        <mxPoint x="379.5" y="130" as="sourcePoint"/>
                        <mxPoint x="379.5" y="200" as="targetPoint"/>
                    </mxGeometry>
                </mxCell>
                <mxCell id="15" value="" style="endArrow=classicThin;html=1;endFill=1;" edge="1" parent="1">
                    <mxGeometry width="50" height="50" relative="1" as="geometry">
                        <mxPoint x="379.5" y="280" as="sourcePoint"/>
                        <mxPoint x="379.5" y="350" as="targetPoint"/>
                    </mxGeometry>
                </mxCell>
                <mxCell id="16" value="" style="endArrow=classicThin;html=1;endFill=1;" edge="1" parent="1">
                    <mxGeometry width="50" height="50" relative="1" as="geometry">
                        <mxPoint x="379.5" y="480" as="sourcePoint"/>
                        <mxPoint x="379.5" y="550" as="targetPoint"/>
                        <Array as="points">
                            <mxPoint x="380" y="500"/>
                        </Array>
                    </mxGeometry>
                </mxCell>
                <mxCell id="17" value="" style="endArrow=classicThin;html=1;endFill=1;" edge="1" parent="1">
                    <mxGeometry width="50" height="50" relative="1" as="geometry">
                        <mxPoint x="379.5" y="640" as="sourcePoint"/>
                        <mxPoint x="379.5" y="710" as="targetPoint"/>
                    </mxGeometry>
                </mxCell>
                <mxCell id="18" value="" style="endArrow=classicThin;html=1;endFill=1;" edge="1" parent="1">
                    <mxGeometry width="50" height="50" relative="1" as="geometry">
                        <mxPoint x="379.5" y="840" as="sourcePoint"/>
                        <mxPoint x="379.5" y="910" as="targetPoint"/>
                    </mxGeometry>
                </mxCell>
                <mxCell id="19" value="" style="endArrow=classicThin;html=1;endFill=1;" edge="1" parent="1">
                    <mxGeometry width="50" height="50" relative="1" as="geometry">
                        <mxPoint x="379.5" y="1040" as="sourcePoint"/>
                        <mxPoint x="379.5" y="1110" as="targetPoint"/>
                    </mxGeometry>
                </mxCell>
                <mxCell id="20" value="" style="endArrow=classicThin;html=1;endFill=1;" edge="1" parent="1">
                    <mxGeometry width="50" height="50" relative="1" as="geometry">
                        <mxPoint x="379.5" y="1200" as="sourcePoint"/>
                        <mxPoint x="379.5" y="1270" as="targetPoint"/>
                    </mxGeometry>
                </mxCell>
            </root>
        </mxGraphModel>
    </diagram>
</mxfile>